<?xml version="1.0" standalone="no"?>
<!DOCTYPE svg PUBLIC "-//W3C//DTD SVG 20010904//EN"
 "http://www.w3.org/TR/2001/REC-SVG-20010904/DTD/svg10.dtd">
<svg version="1.0" xmlns="http://www.w3.org/2000/svg"
 width="2101.000000pt" height="2048.000000pt" viewBox="0 0 2101.000000 2048.000000"
 preserveAspectRatio="xMidYMid meet">

<g transform="translate(0.000000,2048.000000) scale(0.100000,-0.100000)"
fill="#000000" stroke="none">
<path d="M3495 20473 c-1723 -107 -3151 -1384 -3440 -3078 -53 -314 -50 127
-50 -7155 0 -7284 -3 -6842 51 -7155 171 -1001 747 -1887 1594 -2455 488 -327
1007 -520 1618 -603 l167 -22 7065 0 c6754 0 7071 1 7210 18 1158 144 2131
761 2742 1737 283 453 465 975 535 1540 17 138 18 450 18 6940 0 6490 -1 6802
-18 6940 -124 994 -597 1856 -1357 2471 -597 484 -1302 761 -2080 819 -121 9
-13911 12 -14055 3z m4410 -5213 c465 -25 826 -80 1175 -180 530 -152 960
-383 1336 -718 457 -408 776 -1019 883 -1692 79 -499 43 -1097 -95 -1574 -132
-452 -338 -804 -674 -1150 -595 -612 -1379 -923 -2540 -1007 -202 -15 -811
-17 -1132 -5 l-238 9 0 -1437 0 -1438 -29 -29 -29 -29 -889 0 c-958 1 -911 -2
-933 54 -11 30 -15 9062 -4 9104 12 43 50 52 221 52 87 0 421 7 743 15 322 9
727 19 900 24 466 12 1089 12 1305 1z m7505 -2170 c347 -18 713 -59 947 -106
205 -41 516 -141 587 -188 13 -8 32 -32 42 -53 18 -36 19 -74 22 -780 1 -408
-1 -757 -6 -774 -12 -48 -47 -70 -117 -71 -54 -1 -71 4 -162 50 -421 213
-1046 351 -1668 369 -223 6 -321 -2 -500 -39 -126 -26 -191 -50 -261 -97 -116
-78 -168 -179 -169 -331 0 -91 1 -98 39 -167 42 -80 132 -172 233 -241 129
-88 606 -311 843 -395 569 -202 1208 -542 1500 -799 383 -337 583 -745 621
-1265 28 -381 -45 -766 -207 -1092 -102 -207 -209 -354 -380 -525 -208 -209
-424 -352 -714 -476 -415 -177 -856 -263 -1455 -285 -612 -22 -1431 91 -1913
265 -154 55 -302 119 -340 147 -66 49 -63 -1 -62 894 0 511 4 818 10 829 19
35 47 33 118 -4 428 -229 662 -319 1107 -425 364 -87 605 -115 975 -115 301
-1 421 12 588 60 190 55 286 124 349 252 36 71 38 82 38 167 0 82 -3 96 -33
158 -41 82 -137 182 -243 252 -145 95 -460 237 -914 410 -434 166 -941 439
-1215 656 -160 126 -353 338 -473 519 -360 542 -393 1293 -86 1930 261 542
784 954 1454 1145 382 110 888 153 1445 125z"/>
<path d="M6705 13540 l-70 -5 -3 -1472 -2 -1472 37 -8 c21 -4 265 -8 543 -8
424 0 525 3 632 18 380 52 730 155 935 275 157 92 336 249 431 377 164 222
243 542 229 929 -7 185 -30 310 -84 456 -97 262 -256 466 -479 616 -191 127
-458 220 -811 281 -84 14 -182 17 -693 18 -327 0 -626 -2 -665 -5z"/>
</g>
</svg>
